<svg width="128" height="128" viewBox="0 0 128 128" xmlns="http://www.w3.org/2000/svg">
  <circle cx="64" cy="64" r="56" fill="#10B981" stroke="#047857" stroke-width="2"/>
  <path d="M44 48c-4 0-8 3-8 8s3 8 8 8h4c2 4 6 8 12 8s10-4 12-8h4c4 0 8-3 8-8s-4-8-8-8c-2-6-8-12-16-12s-14 6-16 12z" 
        fill="#FFFFFF" opacity="0.9"/>
  <circle cx="52" cy="56" r="2" fill="#047857"/>
  <circle cx="64" cy="60" r="2" fill="#047857"/>
  <circle cx="76" cy="56" r="2" fill="#047857"/>
  <line x1="52" y1="56" x2="64" y2="60" stroke="#047857" stroke-width="1"/>
  <line x1="64" y1="60" x2="76" y2="56" stroke="#047857" stroke-width="1"/>
  <rect x="40" y="80" width="48" height="24" rx="4" fill="#FFFFFF" opacity="0.9"/>
  <rect x="44" y="84" width="8" height="2" fill="#10B981"/>
  <rect x="44" y="88" width="12" height="2" fill="#10B981"/>
  <rect x="44" y="92" width="6" height="2" fill="#10B981"/>
  <circle cx="104" cy="24" r="8" fill="#F59E0B"/>
  <circle cx="104" cy="24" r="4" fill="#FFFFFF"/>
</svg>